<svg width="184" height="41" viewBox="0 0 184 41" fill="none" xmlns="http://www.w3.org/2000/svg">
<path d="M0 154.309L271.146 0L542.292 157.431V468.39L270.626 624L0 468.651V154.309Z" fill="#67C6F3"/>
<mask id="mask0_112_1030" style="mask-type:alpha" maskUnits="userSpaceOnUse" x="0" y="0" width="543" height="624">
<path d="M0 154.309L271.146 0L542.292 157.431V468.39L270.626 624L0 468.651V154.309Z" fill="#C4C4C4"/>
</mask>
<g mask="url(#mask0_112_1030)">
<path d="M0 468.39L85.6113 418.689H451.736L271.146 91.8565V-0.520508" stroke="white" stroke-width="11"/>
</g>
<circle cx="275" cy="97" r="25" fill="white"/>
<circle cx="449" cy="418" r="25" fill="white"/>
<circle cx="92" cy="419" r="25" fill="white"/>
<path d="M715.7 415C713.5 415 711.7 414.3 710.3 412.9C708.9 411.5 708.2 409.7 708.2 407.5V212.5C708.2 210.3 708.9 208.5 710.3 207.1C711.7 205.7 713.5 205 715.7 205H795.2C820.2 205 839.9 210.8 854.3 222.4C868.7 233.8 875.9 250.3 875.9 271.9C875.9 286.5 872.4 298.7 865.4 308.5C858.4 318.3 849 325.6 837.2 330.4L879.5 405.4C880.1 406.6 880.4 407.7 880.4 408.7C880.4 410.3 879.8 411.8 878.6 413.2C877.4 414.4 875.9 415 874.1 415H840.8C837.2 415 834.5 414.1 832.7 412.3C830.9 410.3 829.6 408.5 828.8 406.9L792.2 338.2H755.9V407.5C755.9 409.7 755.2 411.5 753.8 412.9C752.4 414.3 750.6 415 748.4 415H715.7ZM755.9 300.1H794.3C805.3 300.1 813.4 297.6 818.6 292.6C824 287.6 826.7 280.6 826.7 271.6C826.7 262.6 824.1 255.5 818.9 250.3C813.7 245.1 805.5 242.5 794.3 242.5H755.9V300.1ZM920.192 415C917.992 415 916.192 414.3 914.792 412.9C913.392 411.5 912.692 409.7 912.692 407.5V212.5C912.692 210.3 913.392 208.5 914.792 207.1C916.192 205.7 917.992 205 920.192 205H1002.09C1018.29 205 1032.29 207.5 1044.09 212.5C1056.09 217.5 1065.39 225.1 1071.99 235.3C1078.79 245.3 1082.19 257.8 1082.19 272.8C1082.19 288 1078.79 300.6 1071.99 310.6C1065.39 320.4 1056.09 327.7 1044.09 332.5C1032.29 337.3 1018.29 339.7 1002.09 339.7H961.892V407.5C961.892 409.7 961.192 411.5 959.792 412.9C958.392 414.3 956.592 415 954.392 415H920.192ZM960.992 302.5H1000.59C1010.79 302.5 1018.69 300 1024.29 295C1030.09 290 1032.99 282.5 1032.99 272.5C1032.99 263.7 1030.39 256.5 1025.19 250.9C1020.19 245.3 1011.99 242.5 1000.59 242.5H960.992V302.5ZM1197.09 418C1178.29 418 1162.19 414.9 1148.79 408.7C1135.59 402.3 1125.29 393.1 1117.89 381.1C1110.69 368.9 1106.79 354.2 1106.19 337C1105.99 328.4 1105.89 319.2 1105.89 309.4C1105.89 299.6 1105.99 290.3 1106.19 281.5C1106.79 264.7 1110.69 250.4 1117.89 238.6C1125.29 226.8 1135.69 217.8 1149.09 211.6C1162.69 205.2 1178.69 202 1197.09 202C1211.89 202 1224.89 203.9 1236.09 207.7C1247.29 211.5 1256.69 216.5 1264.29 222.7C1271.89 228.7 1277.69 235.3 1281.69 242.5C1285.69 249.7 1287.79 256.6 1287.99 263.2C1287.99 265 1287.39 266.6 1286.19 268C1284.99 269.2 1283.39 269.8 1281.39 269.8H1244.19C1242.19 269.8 1240.59 269.4 1239.39 268.6C1238.39 267.8 1237.49 266.6 1236.69 265C1235.29 261.4 1232.99 257.8 1229.79 254.2C1226.79 250.4 1222.69 247.2 1217.49 244.6C1212.29 242 1205.49 240.7 1197.09 240.7C1184.49 240.7 1174.49 244 1167.09 250.6C1159.89 257.2 1155.99 268 1155.39 283C1154.79 300.2 1154.79 317.7 1155.39 335.5C1155.99 351.1 1159.99 362.3 1167.39 369.1C1174.99 375.9 1185.09 379.3 1197.69 379.3C1205.89 379.3 1213.19 377.9 1219.59 375.1C1226.19 372.1 1231.39 367.5 1235.19 361.3C1238.99 355.1 1240.89 347.2 1240.89 337.6V330.1H1208.19C1206.19 330.1 1204.49 329.4 1203.09 328C1201.69 326.4 1200.99 324.6 1200.99 322.6V303.4C1200.99 301.2 1201.69 299.4 1203.09 298C1204.49 296.6 1206.19 295.9 1208.19 295.9H1281.69C1283.89 295.9 1285.69 296.6 1287.09 298C1288.49 299.4 1289.19 301.2 1289.19 303.4V336.1C1289.19 353.3 1285.39 368 1277.79 380.2C1270.39 392.4 1259.69 401.8 1245.69 408.4C1231.89 414.8 1215.69 418 1197.09 418ZM1492.09 418C1473.29 418 1457.29 414.9 1444.09 408.7C1431.09 402.3 1420.99 393.1 1413.79 381.1C1406.59 368.9 1402.59 354.1 1401.79 336.7C1401.59 328.5 1401.49 319.7 1401.49 310.3C1401.49 300.9 1401.59 291.9 1401.79 283.3C1402.59 266.1 1406.59 251.5 1413.79 239.5C1421.19 227.3 1431.49 218 1444.69 211.6C1457.89 205.2 1473.69 202 1492.09 202C1505.49 202 1517.69 203.7 1528.69 207.1C1539.69 210.5 1549.19 215.4 1557.19 221.8C1565.19 228.2 1571.39 235.7 1575.79 244.3C1580.19 252.9 1582.59 262.5 1582.99 273.1C1582.99 274.9 1582.29 276.4 1580.89 277.6C1579.69 278.8 1578.19 279.4 1576.39 279.4H1542.19C1539.79 279.4 1537.89 278.8 1536.49 277.6C1535.09 276.4 1533.99 274.4 1533.19 271.6C1530.19 259.8 1525.19 251.7 1518.19 247.3C1511.19 242.9 1502.49 240.7 1492.09 240.7C1479.69 240.7 1469.89 244.1 1462.69 250.9C1455.49 257.7 1451.59 269 1450.99 284.8C1450.39 301.2 1450.39 318 1450.99 335.2C1451.59 351 1455.49 362.3 1462.69 369.1C1469.89 375.9 1479.69 379.3 1492.09 379.3C1502.49 379.3 1511.19 377.1 1518.19 372.7C1525.39 368.1 1530.39 360 1533.19 348.4C1533.99 345.4 1535.09 343.4 1536.49 342.4C1537.89 341.2 1539.79 340.6 1542.19 340.6H1576.39C1578.19 340.6 1579.69 341.2 1580.89 342.4C1582.29 343.6 1582.99 345.1 1582.99 346.9C1582.59 357.5 1580.19 367.1 1575.79 375.7C1571.39 384.3 1565.19 391.8 1557.19 398.2C1549.19 404.6 1539.69 409.5 1528.69 412.9C1517.69 416.3 1505.49 418 1492.09 418ZM1700.1 418C1681.9 418 1666.2 415 1653 409C1639.8 403 1629.5 394 1622.1 382C1614.7 369.8 1610.7 354.5 1610.1 336.1C1609.9 327.5 1609.8 319 1609.8 310.6C1609.8 302 1609.9 293.3 1610.1 284.5C1610.7 266.5 1614.7 251.4 1622.1 239.2C1629.7 226.8 1640.1 217.5 1653.3 211.3C1666.7 205.1 1682.3 202 1700.1 202C1717.7 202 1733.1 205.1 1746.3 211.3C1759.7 217.5 1770.2 226.8 1777.8 239.2C1785.4 251.4 1789.4 266.5 1789.8 284.5C1790.2 293.3 1790.4 302 1790.4 310.6C1790.4 319 1790.2 327.5 1789.8 336.1C1789.2 354.5 1785.2 369.8 1777.8 382C1770.4 394 1760.1 403 1746.9 409C1733.7 415 1718.1 418 1700.1 418ZM1700.1 379.3C1711.7 379.3 1721.2 375.8 1728.6 368.8C1736.2 361.6 1740.2 350.2 1740.6 334.6C1741 325.8 1741.2 317.6 1741.2 310C1741.2 302.2 1741 294 1740.6 285.4C1740.4 275 1738.5 266.5 1734.9 259.9C1731.3 253.3 1726.5 248.5 1720.5 245.5C1714.7 242.3 1707.9 240.7 1700.1 240.7C1692.3 240.7 1685.4 242.3 1679.4 245.5C1673.4 248.5 1668.6 253.3 1665 259.9C1661.6 266.5 1659.7 275 1659.3 285.4C1659.1 294 1659 302.2 1659 310C1659 317.6 1659.1 325.8 1659.3 334.6C1659.9 350.2 1663.9 361.6 1671.3 368.8C1678.7 375.8 1688.3 379.3 1700.1 379.3ZM1835.13 415C1832.93 415 1831.13 414.3 1829.73 412.9C1828.33 411.5 1827.63 409.7 1827.63 407.5V212.5C1827.63 210.3 1828.33 208.5 1829.73 207.1C1831.13 205.7 1832.93 205 1835.13 205H1862.43C1865.43 205 1867.63 205.7 1869.03 207.1C1870.43 208.5 1871.33 209.6 1871.73 210.4L1951.83 335.5V212.5C1951.83 210.3 1952.53 208.5 1953.93 207.1C1955.33 205.7 1957.03 205 1959.03 205H1989.63C1991.83 205 1993.63 205.7 1995.03 207.1C1996.43 208.5 1997.13 210.3 1997.13 212.5V407.5C1997.13 409.5 1996.43 411.3 1995.03 412.9C1993.63 414.3 1991.83 415 1989.63 415H1962.03C1959.03 415 1956.83 414.3 1955.43 412.9C1954.23 411.3 1953.33 410.2 1952.73 409.6L1872.93 288.4V407.5C1872.93 409.7 1872.23 411.5 1870.83 412.9C1869.43 414.3 1867.63 415 1865.43 415H1835.13ZM2049 415C2046.8 415 2045 414.3 2043.6 412.9C2042.2 411.5 2041.5 409.7 2041.5 407.5V212.5C2041.5 210.3 2042.2 208.5 2043.6 207.1C2045 205.7 2046.8 205 2049 205H2076.3C2079.3 205 2081.5 205.7 2082.9 207.1C2084.3 208.5 2085.2 209.6 2085.6 210.4L2165.7 335.5V212.5C2165.7 210.3 2166.4 208.5 2167.8 207.1C2169.2 205.7 2170.9 205 2172.9 205H2203.5C2205.7 205 2207.5 205.7 2208.9 207.1C2210.3 208.5 2211 210.3 2211 212.5V407.5C2211 409.5 2210.3 411.3 2208.9 412.9C2207.5 414.3 2205.7 415 2203.5 415H2175.9C2172.9 415 2170.7 414.3 2169.3 412.9C2168.1 411.3 2167.2 410.2 2166.6 409.6L2086.8 288.4V407.5C2086.8 409.7 2086.1 411.5 2084.7 412.9C2083.3 414.3 2081.5 415 2079.3 415H2049ZM2262.87 415C2260.67 415 2258.87 414.3 2257.47 412.9C2256.07 411.5 2255.37 409.7 2255.37 407.5V212.5C2255.37 210.3 2256.07 208.5 2257.47 207.1C2258.87 205.7 2260.67 205 2262.87 205H2398.77C2400.97 205 2402.77 205.7 2404.17 207.1C2405.57 208.5 2406.27 210.3 2406.27 212.5V236.5C2406.27 238.5 2405.57 240.2 2404.17 241.6C2402.77 243 2400.97 243.7 2398.77 243.7H2301.57V290.8H2392.17C2394.37 290.8 2396.17 291.5 2397.57 292.9C2398.97 294.3 2399.67 296.1 2399.67 298.3V320.5C2399.67 322.5 2398.97 324.2 2397.57 325.6C2396.17 327 2394.37 327.7 2392.17 327.7H2301.57V376.3H2401.17C2403.37 376.3 2405.17 377 2406.57 378.4C2407.97 379.8 2408.67 381.6 2408.67 383.8V407.5C2408.67 409.7 2407.97 411.5 2406.57 412.9C2405.17 414.3 2403.37 415 2401.17 415H2262.87ZM2525.98 418C2507.18 418 2491.18 414.9 2477.98 408.7C2464.98 402.3 2454.88 393.1 2447.68 381.1C2440.48 368.9 2436.48 354.1 2435.68 336.7C2435.48 328.5 2435.38 319.7 2435.38 310.3C2435.38 300.9 2435.48 291.9 2435.68 283.3C2436.48 266.1 2440.48 251.5 2447.68 239.5C2455.08 227.3 2465.38 218 2478.58 211.6C2491.78 205.2 2507.58 202 2525.98 202C2539.38 202 2551.58 203.7 2562.58 207.1C2573.58 210.5 2583.08 215.4 2591.08 221.8C2599.08 228.2 2605.28 235.7 2609.68 244.3C2614.08 252.9 2616.48 262.5 2616.88 273.1C2616.88 274.9 2616.18 276.4 2614.78 277.6C2613.58 278.8 2612.08 279.4 2610.28 279.4H2576.08C2573.68 279.4 2571.78 278.8 2570.38 277.6C2568.98 276.4 2567.88 274.4 2567.08 271.6C2564.08 259.8 2559.08 251.7 2552.08 247.3C2545.08 242.9 2536.38 240.7 2525.98 240.7C2513.58 240.7 2503.78 244.1 2496.58 250.9C2489.38 257.7 2485.48 269 2484.88 284.8C2484.28 301.2 2484.28 318 2484.88 335.2C2485.48 351 2489.38 362.3 2496.58 369.1C2503.78 375.9 2513.58 379.3 2525.98 379.3C2536.38 379.3 2545.08 377.1 2552.08 372.7C2559.28 368.1 2564.28 360 2567.08 348.4C2567.88 345.4 2568.98 343.4 2570.38 342.4C2571.78 341.2 2573.68 340.6 2576.08 340.6H2610.28C2612.08 340.6 2613.58 341.2 2614.78 342.4C2616.18 343.6 2616.88 345.1 2616.88 346.9C2616.48 357.5 2614.08 367.1 2609.68 375.7C2605.28 384.3 2599.08 391.8 2591.08 398.2C2583.08 404.6 2573.58 409.5 2562.58 412.9C2551.58 416.3 2539.38 418 2525.98 418ZM2704.28 415C2702.08 415 2700.28 414.3 2698.88 412.9C2697.48 411.5 2696.78 409.7 2696.78 407.5V246.7H2642.18C2640.18 246.7 2638.48 246 2637.08 244.6C2635.68 243.2 2634.98 241.5 2634.98 239.5V212.5C2634.98 210.3 2635.68 208.5 2637.08 207.1C2638.48 205.7 2640.18 205 2642.18 205H2799.38C2801.58 205 2803.38 205.7 2804.78 207.1C2806.18 208.5 2806.88 210.3 2806.88 212.5V239.5C2806.88 241.5 2806.18 243.2 2804.78 244.6C2803.38 246 2801.58 246.7 2799.38 246.7H2745.08V407.5C2745.08 409.7 2744.38 411.5 2742.98 412.9C2741.58 414.3 2739.78 415 2737.58 415H2704.28Z" fill="white"/>
<path d="M1328.18 415C1325.98 415 1324.18 414.3 1322.78 412.9C1321.38 411.5 1320.68 409.7 1320.68 407.5V373.9C1320.68 371.7 1321.38 369.9 1322.78 368.5C1324.18 367.1 1325.98 366.4 1328.18 366.4H1361.78C1363.98 366.4 1365.78 367.1 1367.18 368.5C1368.58 369.9 1369.28 371.7 1369.28 373.9V407.5C1369.28 409.7 1368.58 411.5 1367.18 412.9C1365.78 414.3 1363.98 415 1361.78 415H1328.18Z" fill="#67C6F3"/>
</svg>
